<?xml version="1.0" standalone="no"?>
<!DOCTYPE svg PUBLIC "-//W3C//DTD SVG 20010904//EN"
 "http://www.w3.org/TR/2001/REC-SVG-20010904/DTD/svg10.dtd">
<svg version="1.0" xmlns="http://www.w3.org/2000/svg"
 width="225.000000pt" height="225.000000pt" viewBox="0 0 225.000000 225.000000"
 preserveAspectRatio="xMidYMid meet">

<g transform="translate(0.000000,225.000000) scale(0.100000,-0.100000)"
fill="#000000" stroke="none">
<path d="M785 2241 c-85 -21 -163 -80 -207 -157 l-30 -54 -92 0 c-58 0 -110
-6 -139 -16 -60 -20 -141 -93 -175 -158 l-27 -51 -3 -716 c-3 -715 -2 -717 19
-775 30 -79 104 -153 182 -182 55 -21 74 -22 413 -22 l356 0 29 29 c23 23 29
38 29 71 0 52 -13 76 -50 95 -24 12 -84 15 -357 15 -310 0 -330 1 -361 20 -18
11 -37 32 -42 46 -6 15 -10 284 -10 696 l0 670 34 34 c33 33 36 34 118 34 l85
0 18 -40 c26 -57 101 -123 168 -149 51 -18 78 -21 222 -21 141 0 172 3 219 20
67 25 135 84 167 144 l24 46 80 0 c89 0 115 -11 140 -60 12 -24 15 -82 15
-324 l0 -296 28 -30 c51 -57 146 -42 173 27 6 17 9 143 7 342 -3 298 -4 319
-24 362 -32 69 -91 128 -159 161 -53 25 -71 28 -156 28 l-95 0 -41 64 c-79
123 -161 157 -382 155 -80 -1 -159 -4 -176 -8z m330 -215 c77 -32 85 -137 15
-184 -33 -22 -42 -23 -178 -20 l-144 3 -29 33 c-48 54 -31 139 34 167 45 20
256 20 302 1z"/>
<path d="M588 1374 c-70 -37 -64 -145 9 -183 27 -14 481 -15 517 -1 68 26 83
122 26 173 l-30 27 -248 0 c-198 -1 -252 -4 -274 -16z"/>
<path d="M569 931 c-49 -49 -36 -133 25 -166 27 -14 59 -16 224 -13 l194 3 29
33 c31 35 37 73 17 117 -22 49 -50 55 -263 55 l-197 0 -29 -29z"/>
<path d="M1433 942 c-103 -37 -179 -107 -224 -207 -18 -40 -23 -69 -23 -145
-1 -82 3 -102 26 -152 35 -76 95 -138 170 -179 55 -29 74 -34 153 -37 74 -3
100 0 145 17 l55 21 128 -128 c126 -126 128 -127 173 -127 39 0 50 5 75 33 32
36 38 77 15 120 -8 15 -66 78 -129 141 l-115 113 18 42 c75 171 -11 388 -188
472 -76 37 -201 44 -279 16z m201 -215 c106 -60 102 -229 -7 -280 -133 -64
-274 62 -223 197 37 97 141 134 230 83z"/>
</g>
</svg>
