<svg xmlns="http://www.w3.org/2000/svg" width="23.199" height="23.2" viewBox="0 0 23.199 23.2"><g transform="translate(0.599 0.6)"><g transform="translate(-13.46 0.094)" fill="#fff" opacity="0.4"><path d="M 14.37738513946533 20.36122131347656 C 14.05176448822021 20.36122131347656 13.74581432342529 20.2338809967041 13.51588439941406 20.00265121459961 C 13.042405128479 19.52645111083984 13.042405128479 18.75164031982422 13.5158748626709 18.27545166015625 L 20.84485244750977 10.90603446960449 L 13.51591491699219 3.537611246109009 C 13.04275512695313 3.061731100082397 13.04263496398926 2.286631107330322 13.51561450958252 1.809741139411926 C 13.74580478668213 1.5782310962677 14.05175495147705 1.450871109962463 14.37738513946533 1.450871109962463 C 14.7030143737793 1.450871109962463 15.00896453857422 1.5782310962677 15.23889446258545 1.809481143951416 L 23.35773468017578 9.972301483154297 C 23.60113906860352 10.21710586547852 23.72248840332031 10.54791927337646 23.70086669921875 10.90603256225586 C 23.72240257263184 11.26313972473145 23.60122299194336 11.59377670288086 23.35824394226074 11.83924102783203 L 15.23886489868164 20.00268173217773 C 15.00895500183105 20.2338809967041 14.70300483703613 20.36122131347656 14.37738513946533 20.36122131347656 Z" stroke="none"/><path d="M 14.37738037109375 1.750873565673828 C 14.14252281188965 1.750873565673828 13.90766525268555 1.840915679931641 13.72861480712891 2.021001815795898 C 13.37050437927246 2.382070541381836 13.37050437927246 2.96588134765625 13.72861480712891 3.326051712036133 L 21.26796340942383 10.90602111816406 L 13.72861480712891 18.48697090148926 C 13.37050437927246 18.84714126586914 13.37050437927246 19.43094062805176 13.72861480712891 19.7911205291748 C 13.90766525268555 19.9711856842041 14.14252281188965 20.06121826171875 14.37738037109375 20.06121826171875 C 14.61223983764648 20.06121826171875 14.84709930419922 19.9711856842041 15.02615547180176 19.7911205291748 L 23.14503479003906 11.6281909942627 C 23.34186553955078 11.42934131622314 23.42022514343262 11.1654109954834 23.40016555786133 10.90602111816406 C 23.42022514343262 10.64668083190918 23.34186553955078 10.38182067871094 23.14503479003906 10.18386077880859 L 15.02615547180176 2.021001815795898 C 14.84709930419922 1.840915679931641 14.61223983764648 1.750873565673828 14.37738037109375 1.750873565673828 M 14.37738418579102 1.150871276855469 C 14.7834644317627 1.150871276855469 15.16497421264648 1.309650421142578 15.45163536071777 1.597951889038086 L 23.5704460144043 9.760741233825684 C 23.86660575866699 10.05860137939453 24.0221996307373 10.47376537322998 24.00128173828125 10.90606212615967 C 24.02205276489258 11.33709621429443 23.86681747436523 11.75189781188965 23.57145500183105 12.0502815246582 L 15.45156478881836 20.21423149108887 C 15.1649341583252 20.50247192382813 14.78343391418457 20.66122055053711 14.37738418579102 20.66122055053711 C 13.97131538391113 20.66122055053711 13.58981513977051 20.50246047973633 13.30315399169922 20.21419143676758 C 12.71370506286621 19.62133026123047 12.71371459960938 18.65674209594727 13.30313491821289 18.06392097473145 L 20.42173385620117 10.90604305267334 L 13.30321502685547 3.749170303344727 C 12.71419525146484 3.156761169433594 12.71395492553711 2.192001342773438 13.30260467529297 1.598491668701172 C 13.58977508544922 1.309650421142578 13.97128486633301 1.150871276855469 14.37738418579102 1.150871276855469 Z" stroke="none" fill="#fff"/></g><g transform="translate(-11.995 0)" fill="#fff"><path d="M 23.13533592224121 22.29999923706055 C 22.80971527099609 22.29999923706055 22.50375556945801 22.17264938354492 22.27382659912109 21.94140815734863 C 21.80073547363281 21.46557998657227 21.80061531066895 20.69047927856445 22.27354621887207 20.21357917785645 L 31.43704605102539 10.99996948242188 L 22.2729663848877 1.785789012908936 C 21.79947662353516 1.309589028358459 21.79947662353516 0.5347890257835388 22.27293586730957 0.05860904604196548 C 22.50283622741699 -0.1726409494876862 22.80878639221191 -0.3000009655952454 23.13443565368652 -0.3000009655952454 C 23.4600658416748 -0.3000009655952454 23.76602554321289 -0.1726409494876862 23.99595642089844 0.05860904604196548 L 33.94993591308594 10.06623935699463 C 34.19335174560547 10.31104373931885 34.31470108032227 10.64187049865723 34.29306030273438 10.99998569488525 C 34.31460571289063 11.35708236694336 34.19342422485352 11.68770503997803 33.95044708251953 11.93317890167236 L 23.99681663513184 21.94142913818359 C 23.76691627502441 22.17264938354492 23.46095657348633 22.29999923706055 23.13533592224121 22.29999923706055 Z" stroke="none"/><path d="M 23.13442993164063 1.9073486328125e-06 C 22.89956665039063 1.9073486328125e-06 22.66471099853516 0.09004402160644531 22.48567581176758 0.2701282501220703 C 22.12756729125977 0.6302986145019531 22.12756729125977 1.214069366455078 22.48567581176758 1.574239730834961 L 31.86015510559082 10.99996948242188 L 22.48656463623047 20.42482948303223 C 22.12846755981445 20.78592872619629 22.12846755981445 21.36970901489258 22.48656463623047 21.7298698425293 C 22.66562271118164 21.90995407104492 22.90048217773438 21.99999618530273 23.13533782958984 21.99999618530273 C 23.37019729614258 21.99999618530273 23.60505676269531 21.90995407104492 23.78410720825195 21.7298698425293 L 33.73723602294922 11.72212886810303 C 33.93406677246094 11.52327919006348 34.01241302490234 11.25934886932373 33.99235534667969 10.99996948242188 C 34.01241302490234 10.74061870574951 33.93406677246094 10.47575950622559 33.73723602294922 10.27779865264893 L 23.78320693969727 0.2701282501220703 C 23.60415649414063 0.09004402160644531 23.36928939819336 1.9073486328125e-06 23.13442993164063 1.9073486328125e-06 M 23.13442611694336 -0.6000003814697266 C 23.54052734375 -0.6000003814697266 23.92204666137695 -0.4412212371826172 24.20869636535645 -0.1529006958007813 L 34.16263580322266 9.854679107666016 C 34.45879745483398 10.15253925323486 34.6143913269043 10.56769371032715 34.59347152709961 10.99999904632568 C 34.61425018310547 11.43103313446045 34.45900726318359 11.84583568572998 34.16365814208984 12.14421939849854 L 24.20952606201172 22.15296936035156 C 23.92292404174805 22.44121932983398 23.54141616821289 22.59999847412109 23.13533401489258 22.59999847412109 C 22.72925567626953 22.59999847412109 22.34774398803711 22.44121932983398 22.06108474731445 22.15291976928711 C 21.47217559814453 21.56061935424805 21.4719352722168 20.59586906433105 22.0605354309082 20.00233840942383 L 31.0139274597168 10.99996948242188 L 22.06025695800781 1.997348785400391 C 21.47077560424805 1.404468536376953 21.47077560424805 0.4398994445800781 22.06019592285156 -0.1529216766357422 C 22.34679412841797 -0.4412117004394531 22.72830581665039 -0.6000003814697266 23.13442611694336 -0.6000003814697266 Z" stroke="none" fill="#fff"/></g></g></svg>