<svg xmlns="http://www.w3.org/2000/svg" width="180" height="168.813" viewBox="0 0 180 168.813"><g transform="translate(-0.004 0)"><path d="M444.2,267.228,353.432,290.6a12,12,0,0,1-14.6-8.62l-27.45-106.6a12,12,0,0,1,8.62-14.6l84.445-21.745,21.614,9.676L452.82,252.628a12,12,0,0,1-8.62,14.6Z" transform="translate(-310.999 -139.037)" fill="#f2f2f2"/><path d="M326.912,170.51a8.547,8.547,0,0,0-6.139,10.4l27.451,106.6a8.547,8.547,0,0,0,10.4,6.139l90.768-23.374a8.547,8.547,0,0,0,6.139-10.4L429.182,157.569l-18.995-8.5Z" transform="translate(-317.048 -145.423)" fill="#fff"/><path d="M589.239,149.763l-14.047,3.617a3.993,3.993,0,0,1-4.862-2.871l-2.672-10.375a.249.249,0,0,1,.343-.29l21.278,9.449a.25.25,0,0,1-.039.47Z" transform="translate(-474.408 -139.537)" fill="#f2f2f2"/><path d="M529.935,410.877,488.61,421.519a2,2,0,0,1-1-3.867l41.325-10.642a2,2,0,0,1,1,3.867Z" transform="translate(-422.494 -309.618)" fill="#ccc"/><path d="M542.535,423.185l-49.3,12.7a2,2,0,0,1-1-3.867l49.3-12.7a2,2,0,0,1,1,3.867Z" transform="translate(-425.439 -317.454)" fill="#ccc"/><circle cx="7.056" cy="7.056" r="7.056" transform="translate(42.192 110.606)" fill="#e6e6e6"/><path d="M464.768,267.318l-54.884,14.128a6.183,6.183,0,0,1-7.52-4.442l-11.5-44.682A6.183,6.183,0,0,1,395.3,224.8l54.884-14.128a6.183,6.183,0,0,1,7.521,4.441l11.5,44.681A6.183,6.183,0,0,1,464.768,267.318Z" transform="translate(-361.721 -184.525)" fill="#fff"/><path d="M464.768,267.318l-54.884,14.128a6.183,6.183,0,0,1-7.52-4.442l-11.5-44.682A6.183,6.183,0,0,1,395.3,224.8l54.884-14.128a6.183,6.183,0,0,1,7.521,4.441l11.5,44.681A6.183,6.183,0,0,1,464.768,267.318Zm-69.284-41.812a5.456,5.456,0,0,0-3.919,6.636l11.5,44.681a5.456,5.456,0,0,0,6.636,3.919l54.884-14.128a5.456,5.456,0,0,0,3.919-6.636L457,215.3a5.456,5.456,0,0,0-6.636-3.919Z" transform="translate(-361.721 -184.525)" fill="#e6e6e6"/><path d="M496.109,248.926l-27.7,7.13a.992.992,0,0,1-1.2-.624.956.956,0,0,1,.673-1.213l28.2-7.258c1.139.577.839,1.758.032,1.965Z" transform="translate(-410.427 -207.753)" fill="#f2f2f2"/><path d="M499.552,262.3l-27.7,7.13a.992.992,0,0,1-1.2-.624.956.956,0,0,1,.673-1.213l28.2-7.258c1.139.577.839,1.758.032,1.965Z" transform="translate(-412.62 -216.268)" fill="#f2f2f2"/><path d="M437.844,276.037l-8.454,2.176a1.076,1.076,0,0,1-1.309-.773l-2.568-9.976a1.076,1.076,0,0,1,.773-1.309l8.454-2.176a1.076,1.076,0,0,1,1.309.773l2.568,9.976A1.076,1.076,0,0,1,437.844,276.037Z" transform="translate(-383.887 -218.567)" fill="#e6e6e6"/><path d="M480.834,289.74,438.56,300.622a.992.992,0,0,1-1.2-.624.956.956,0,0,1,.673-1.213l42.772-11.01c1.139.577.839,1.758.032,1.965Z" transform="translate(-391.422 -233.74)" fill="#f2f2f2"/><path d="M484.278,303.118,442,314a.992.992,0,0,1-1.2-.624.956.956,0,0,1,.673-1.213l42.771-11.01c1.139.577.839,1.758.032,1.965Z" transform="translate(-393.615 -242.258)" fill="#f2f2f2"/><path d="M487.72,316.487l-42.274,10.882a.992.992,0,0,1-1.2-.624.956.956,0,0,1,.673-1.213l42.771-11.01c1.139.577.839,1.758.032,1.965Z" transform="translate(-395.806 -250.77)" fill="#f2f2f2"/><path d="M491.163,329.864l-42.274,10.882a.992.992,0,0,1-1.2-.624.956.956,0,0,1,.673-1.213l42.772-11.01c1.139.577.839,1.758.032,1.965Z" transform="translate(-397.999 -259.287)" fill="#f2f2f2"/><path d="M494.6,343.234l-42.274,10.882a.992.992,0,0,1-1.2-.624.956.956,0,0,1,.673-1.213l42.771-11.01c1.139.577.839,1.758.032,1.965Z" transform="translate(-400.19 -267.8)" fill="#f2f2f2"/><path d="M443,459.268a.732.732,0,0,1-.463-.032l-.009,0-1.922-.815a.737.737,0,0,1,.577-1.356l1.246.53,1.632-3.84a.737.737,0,0,1,.966-.39h0l-.01.025.01-.025a.737.737,0,0,1,.39.966l-1.92,4.515a.737.737,0,0,1-.5.425Z" transform="translate(-393.236 -339.133)" fill="#fff"/><path d="M588.193,368.769H494.464a12,12,0,0,1-11.989-11.989V246.7a12,12,0,0,1,11.989-11.989h87.2l18.518,14.76V356.781A12,12,0,0,1,588.193,368.769Z" transform="translate(-420.177 -199.956)" fill="#e6e6e6"/><path d="M500.511,244.215a8.547,8.547,0,0,0-8.537,8.537V362.829a8.547,8.547,0,0,0,8.537,8.537H594.24a8.547,8.547,0,0,0,8.537-8.537V257.186L586.5,244.214Z" transform="translate(-426.225 -206.004)" fill="#fff"/><path d="M645,325.321H602.331a2,2,0,1,1,0-3.993H645a2,2,0,1,1,0,3.993Z" transform="translate(-495.219 -255.103)" fill="#f44336"/><path d="M653.24,343.868H602.331a2,2,0,1,1,0-3.993H653.24a2,2,0,1,1,0,3.993Z" transform="translate(-495.219 -266.913)" fill="#f44336"/><path d="M645.007,404.443H602.335a2,2,0,0,0,0,3.993h42.672a2,2,0,1,0,0-3.993Z" transform="translate(-495.222 -308.023)" fill="#ccc"/><path d="M653.243,422.993H602.335a2,2,0,0,0,0,3.993h50.908a2,2,0,0,0,0-3.993Z" transform="translate(-495.222 -319.834)" fill="#ccc"/><path d="M645,491.556H602.331a2,2,0,1,1,0-3.993H645a2,2,0,1,1,0,3.993Z" transform="translate(-495.219 -360.947)" fill="#ccc"/><path d="M653.24,510.1H602.331a2,2,0,1,1,0-3.993H653.24a2,2,0,1,1,0,3.993Z" transform="translate(-495.219 -372.756)" fill="#ccc"/><circle cx="7.056" cy="7.056" r="7.056" transform="translate(82.286 64.534)" fill="#f44336"/><path d="M550.792,334.1a.732.732,0,0,1-.44-.146l-.008-.006-1.658-1.269a.737.737,0,1,1,.9-1.17l1.074.824,2.538-3.311a.737.737,0,0,1,1.033-.136h0l-.016.022.016-.022a.737.737,0,0,1,.136,1.033l-2.985,3.893a.737.737,0,0,1-.586.287Z" transform="translate(-462.15 -259.819)" fill="#fff"/><path d="M553.6,406.843a7.056,7.056,0,0,1-7.055,7.059,1.518,1.518,0,0,1-.182-.007,7.056,7.056,0,1,1,7.237-7.052Z" transform="translate(-456.479 -305.058)" fill="#ccc"/><circle cx="7.056" cy="7.056" r="7.056" transform="translate(82.286 124.926)" fill="#ccc"/><path d="M773.061,250.438H758.555a3.993,3.993,0,0,1-3.993-3.993V235.732a.25.25,0,0,1,.4-.2l18.249,14.457a.25.25,0,0,1-.155.445Z" transform="translate(-593.417 -200.445)" fill="#ccc"/><path d="M563.728,407.02a7.056,7.056,0,0,1-7.055,7.059,1.529,1.529,0,0,1-.182-.007,15.277,15.277,0,0,1,1.37-14.009A7.06,7.06,0,0,1,563.728,407.02Z" transform="translate(-466.605 -305.235)" fill="#f44336"/><path d="M600.334,406.441a2,2,0,0,1,2-2h10.634a15.1,15.1,0,0,1,1.311,3.993H602.332a2,2,0,0,1-2-1.994Z" transform="translate(-495.219 -308.023)" fill="#f44336"/><path d="M614.527,422.993a15.232,15.232,0,0,1-.53,3.993H602.335a2,2,0,0,1,0-3.993Z" transform="translate(-495.222 -319.834)" fill="#f44336"/><path d="M660.161,457.772a2.18,2.18,0,0,1-3,.726l-25.432-15.513a2.18,2.18,0,0,1,2.27-3.722l25.432,15.513a2.18,2.18,0,0,1,.726,3Z" transform="translate(-514.545 -329.991)" fill="#3f3d56"/><path d="M585.153,401.589a17.438,17.438,0,1,1-5.807-23.968A17.438,17.438,0,0,1,585.153,401.589ZM559.1,385.7a13.078,13.078,0,1,0,17.976-4.355A13.078,13.078,0,0,0,559.1,385.7Z" transform="translate(-464.97 -289.32)" fill="#3f3d56"/></g></svg>