<svg xmlns="http://www.w3.org/2000/svg" width="143.67" height="22.59" viewBox="0 0 143.67 22.59"><g transform="translate(-213.67 -231.8)"><path d="M10.92.36Q9.9.36,8.97.27A15.819,15.819,0,0,1,6.72-.15,3.85,3.85,0,0,1,7.83-1.44a2.421,2.421,0,0,1,1.71-.42,6.4,6.4,0,0,0,.735.06h.615a5.273,5.273,0,0,0,2.685-.72A7.223,7.223,0,0,0,15.75-4.485,9.682,9.682,0,0,0,17.205-7.4a11.756,11.756,0,0,0,.525-3.555q0-4.35-2.2-6.7T8.88-20.01q-.9,0-1.77.06t-1.59.15V0H2.67V-21.451a28.64,28.64,0,0,1,3.165-.524A27.516,27.516,0,0,1,8.88-22.17a15.543,15.543,0,0,1,5.07.764,10.017,10.017,0,0,1,3.735,2.217A9.532,9.532,0,0,1,20-15.654a13.156,13.156,0,0,1,.8,4.719A12.5,12.5,0,0,1,20-6.411a11.537,11.537,0,0,1-2.145,3.58A9.694,9.694,0,0,1,14.715-.479,8.813,8.813,0,0,1,10.92.36ZM30.69-21.81,38.55,0H35.49L29.4-17.58l-.21-.87-.21.87L25.62-7.95l-.33.63.36-.06H29.7a2.085,2.085,0,0,1,1.65.645,4.871,4.871,0,0,1,.9,1.515H24.69L22.89,0H20.04L27.9-21.81Zm23.25,6.081a5.184,5.184,0,0,1-1.005,3.161,7.045,7.045,0,0,1-2.565,2.142l-.72.24.6.24a5.175,5.175,0,0,1,1.695,1.827,13.192,13.192,0,0,1,.99,2.382q.405,1.3.78,2.756A18.485,18.485,0,0,0,54.78,0h-3a14.239,14.239,0,0,1-.945-2.76q-.345-1.47-.765-2.82A10.559,10.559,0,0,0,49-7.98a3.578,3.578,0,0,0-1.815-1.5.91.91,0,0,1-.27.03,9.387,9.387,0,0,1-1.41.015,8.729,8.729,0,0,1-1.59-.255,3.107,3.107,0,0,1,1.005-1.29,2.784,2.784,0,0,1,1.635-.54,4.419,4.419,0,0,0,1.56-.36,4.937,4.937,0,0,0,1.4-.885,4.47,4.47,0,0,0,1-1.335,3.77,3.77,0,0,0,.39-1.71,3.613,3.613,0,0,0-.39-1.665,4.376,4.376,0,0,0-1.05-1.335,5.023,5.023,0,0,0-1.545-.9,5.409,5.409,0,0,0-1.9-.33q-.84,0-1.53.03a12.514,12.514,0,0,0-1.77.24V0H39.87V-21.511q1.68-.33,3.09-.509a24.265,24.265,0,0,1,3.06-.18,9.94,9.94,0,0,1,3.27.509A7.683,7.683,0,0,1,51.795-20.3a6.154,6.154,0,0,1,1.59,2.052,5.658,5.658,0,0,1,.555,2.457Zm12-6.081L73.8,0H70.74L64.65-17.58l-.21-.87-.21.87L60.87-7.95l-.33.63.36-.06h4.05a2.085,2.085,0,0,1,1.65.645,4.871,4.871,0,0,1,.9,1.515H59.94L58.14,0H55.29l7.86-21.81Z" transform="translate(211 254)" fill="#2e3b4d"/><path d="M83.25,0h-4.2V-21.81h4.2ZM94.23-2.73a5.8,5.8,0,0,0,2.955-.72A6.307,6.307,0,0,0,99.24-5.34a8.119,8.119,0,0,0,1.185-2.64,11.97,11.97,0,0,0,.375-2.97,10.966,10.966,0,0,0-.466-3.27,6.689,6.689,0,0,0-1.459-2.58,6.788,6.788,0,0,0-2.542-1.7,10.068,10.068,0,0,0-3.716-.615q-.6,0-1.248.06t-1.339.18V0h-4.2V-21.42a37.073,37.073,0,0,1,3.75-.6,30.176,30.176,0,0,1,3.06-.18,17.307,17.307,0,0,1,5.355.765,11.171,11.171,0,0,1,3.99,2.2,9.353,9.353,0,0,1,2.49,3.525,12.444,12.444,0,0,1,.855,4.755,12.076,12.076,0,0,1-.81,4.44,11.359,11.359,0,0,1-2.22,3.6,10.084,10.084,0,0,1-3.375,2.4A10.367,10.367,0,0,1,94.68.36q-.42,0-.765-.015A6.787,6.787,0,0,1,93.18.27q-.39-.06-.855-.15T91.2-.15a8.888,8.888,0,0,1,.45-.84,5.118,5.118,0,0,1,.63-.84,3.135,3.135,0,0,1,.84-.645A2.331,2.331,0,0,1,94.23-2.73Zm13.44-19.08h5.43l4.77,16.83.21,1.08.24-1.08,4.74-16.83h5.46L130.56,0h-3.93l-1.17-16.44-.09-1.44-.36,1.44L120.27-.3h-4.41l-4.8-16.17-.36-1.41-.09,1.41L109.5,0h-3.93Zm31.41,2.61a3.316,3.316,0,0,0-2.16.66,2.074,2.074,0,0,0-.81,1.68,2.4,2.4,0,0,0,.765,1.77,9.685,9.685,0,0,0,1.89,1.41q1.125.66,2.46,1.35a14.809,14.809,0,0,1,2.46,1.59,8.365,8.365,0,0,1,1.89,2.13,5.514,5.514,0,0,1,.765,2.97,5.723,5.723,0,0,1-.555,2.565,5.283,5.283,0,0,1-1.56,1.89,7.245,7.245,0,0,1-2.415,1.17,11.28,11.28,0,0,1-3.12.405,15.2,15.2,0,0,1-2.985-.345A17.3,17.3,0,0,1,131.94-1.26l1.14-2.79a12.928,12.928,0,0,0,3.045,1.065,13.209,13.209,0,0,0,2.565.285,4.673,4.673,0,0,0,1.485-.225,3.826,3.826,0,0,0,1.17-.615,2.83,2.83,0,0,0,.765-.9,2.336,2.336,0,0,0,.27-1.11,2.591,2.591,0,0,0-.75-1.86,8.876,8.876,0,0,0-1.89-1.455q-1.14-.675-2.445-1.335a16.4,16.4,0,0,1-2.445-1.515,7.834,7.834,0,0,1-1.89-2.01,4.984,4.984,0,0,1-.75-2.775,5.775,5.775,0,0,1,.525-2.55,4.877,4.877,0,0,1,1.425-1.77,6.251,6.251,0,0,1,2.1-1.035,9.187,9.187,0,0,1,2.55-.345q.69,0,1.335.045t1.35.15a14.773,14.773,0,0,1,1.47.3q.765.2,1.725.495l-1.11,2.73a19.451,19.451,0,0,0-2.43-.555A13.716,13.716,0,0,0,139.08-19.2Z" transform="translate(211 254)" fill="#db1f2a"/></g></svg>