<svg xmlns="http://www.w3.org/2000/svg" width="137.886" height="31.584" viewBox="0 0 137.886 31.584"><g transform="translate(-333.738 -415.92)"><path d="M120.246-17.976a7,7,0,0,0,2.1-.315,5.529,5.529,0,0,0,1.764-.9,4.683,4.683,0,0,0,1.218-1.407,3.653,3.653,0,0,0,.462-1.827,4.059,4.059,0,0,0-.315-1.533,4.087,4.087,0,0,0-.966-1.407,5.178,5.178,0,0,0-1.7-1.05,6.912,6.912,0,0,0-2.562-.42q-1.134,0-1.89.063t-1.89.231v8.568ZM122.3-3.78a5.46,5.46,0,0,0,3.717-1.26,4.528,4.528,0,0,0,1.449-3.612,4.564,4.564,0,0,0-.546-2.247,5.082,5.082,0,0,0-1.512-1.68,7.358,7.358,0,0,0-2.289-1.071,10.439,10.439,0,0,0-2.877-.378h-3.78V0h-5.88V-30.072q1.68-.294,2.982-.483t2.394-.315q1.092-.126,2.121-.168t2.163-.042a18.65,18.65,0,0,1,5,.609,10.329,10.329,0,0,1,3.633,1.743A7.527,7.527,0,0,1,131.082-26a8.137,8.137,0,0,1,.756,3.528,5.743,5.743,0,0,1-.966,3.087,7.814,7.814,0,0,1-2.52,2.5l-1.218.588L128.31-16a7.787,7.787,0,0,1,2.121,1.2,8.559,8.559,0,0,1,1.7,1.785,8.672,8.672,0,0,1,1.113,2.142,6.8,6.8,0,0,1,.4,2.268,7.8,7.8,0,0,1-.735,3.255,9,9,0,0,1-2.121,2.9,11.236,11.236,0,0,1-3.36,2.1,11.522,11.522,0,0,1-4.452.819q-.588,0-1.071-.021a9.5,9.5,0,0,1-1.029-.105q-.546-.084-1.2-.231L118.1-.252a12.44,12.44,0,0,1,.63-1.176,6.465,6.465,0,0,1,.882-1.155,4.251,4.251,0,0,1,1.176-.861A3.334,3.334,0,0,1,122.3-3.78ZM141.624,0h-5.88V-30.534h5.88Z" transform="translate(330 447)" fill="#db1f2a"/><path d="M15.288.5Q13.86.5,12.558.378A22.147,22.147,0,0,1,9.408-.21a5.391,5.391,0,0,1,1.554-1.806A3.389,3.389,0,0,1,13.356-2.6a8.96,8.96,0,0,0,1.029.084h.861a7.382,7.382,0,0,0,3.759-1.008A10.113,10.113,0,0,0,22.05-6.279a13.555,13.555,0,0,0,2.037-4.074,16.459,16.459,0,0,0,.735-4.977q0-6.09-3.087-9.387t-9.3-3.3q-1.26,0-2.478.084t-2.226.21V0H3.738V-30.031a40.1,40.1,0,0,1,4.431-.734,38.522,38.522,0,0,1,4.263-.273,21.76,21.76,0,0,1,7.1,1.07,14.024,14.024,0,0,1,5.229,3.1,13.344,13.344,0,0,1,3.234,4.949,18.418,18.418,0,0,1,1.113,6.606,17.5,17.5,0,0,1-1.113,6.333,16.151,16.151,0,0,1-3,5.012A13.572,13.572,0,0,1,20.6-.67,12.339,12.339,0,0,1,15.288.5ZM42.966-30.534,53.97,0H49.686L41.16-24.612l-.294-1.218-.294,1.218-4.7,13.482-.462.882.5-.084h5.67a2.92,2.92,0,0,1,2.31.9,6.82,6.82,0,0,1,1.26,2.121H34.566L32.046,0h-3.99l11-30.534Zm32.55,8.514A7.257,7.257,0,0,1,74.109-17.6a9.863,9.863,0,0,1-3.591,3l-1.008.335.84.336a7.245,7.245,0,0,1,2.373,2.558,18.469,18.469,0,0,1,1.386,3.334q.567,1.825,1.092,3.859A25.879,25.879,0,0,0,76.692,0h-4.2a19.935,19.935,0,0,1-1.323-3.864Q70.686-5.922,70.1-7.812a14.783,14.783,0,0,0-1.491-3.36,5.009,5.009,0,0,0-2.541-2.1,1.274,1.274,0,0,1-.378.042,13.142,13.142,0,0,1-1.974.021,12.22,12.22,0,0,1-2.226-.357,4.349,4.349,0,0,1,1.407-1.806,3.9,3.9,0,0,1,2.289-.756,6.186,6.186,0,0,0,2.184-.5,6.911,6.911,0,0,0,1.953-1.239,6.257,6.257,0,0,0,1.407-1.869,5.277,5.277,0,0,0,.546-2.394,5.058,5.058,0,0,0-.546-2.331,6.126,6.126,0,0,0-1.47-1.869,7.033,7.033,0,0,0-2.163-1.26,7.573,7.573,0,0,0-2.667-.462q-1.176,0-2.142.042a17.519,17.519,0,0,0-2.478.336V0h-3.99V-30.115q2.352-.461,4.326-.713a33.972,33.972,0,0,1,4.284-.252,13.916,13.916,0,0,1,4.578.713,10.757,10.757,0,0,1,3.507,1.95,8.616,8.616,0,0,1,2.226,2.873,7.921,7.921,0,0,1,.777,3.44Zm16.8-8.514L103.32,0H99.036L90.51-24.612l-.294-1.218-.294,1.218-4.7,13.482-.462.882.5-.084h5.67a2.92,2.92,0,0,1,2.31.9A6.82,6.82,0,0,1,94.5-7.308H83.916L81.4,0h-3.99l11-30.534Z" transform="translate(330 447)" fill="#2e3b4d"/></g></svg>