<?xml version="1.0" encoding="UTF-8" ?>
<!DOCTYPE svg PUBLIC "-//W3C//DTD SVG 1.1//EN" "http://www.w3.org/Graphics/SVG/1.1/DTD/svg11.dtd">
<svg width="1540pt" height="512pt" viewBox="0 0 1540 512" version="1.1" xmlns="http://www.w3.org/2000/svg">
<g id="#ffffffff">
<path fill="#ffffff" opacity="1.00" d=" M 193.49 52.72 C 207.20 51.29 221.10 51.84 234.77 53.54 C 245.65 55.32 256.70 58.61 265.41 65.61 C 267.74 67.77 270.76 70.37 270.24 73.90 C 269.33 94.48 258.73 114.94 241.14 126.08 C 232.71 131.25 223.66 135.83 213.79 137.40 C 200.12 140.25 185.99 139.30 172.33 136.93 C 162.40 135.17 152.84 131.89 143.00 129.74 C 129.47 127.12 115.84 124.41 102.01 124.31 C 91.03 124.38 80.02 123.81 69.07 124.72 C 66.93 124.73 64.24 125.99 62.72 123.83 C 61.62 118.87 65.18 114.63 68.03 111.00 C 78.61 98.63 92.41 89.79 105.79 80.80 C 121.40 71.56 138.17 64.19 155.75 59.61 C 168.06 56.06 180.69 53.54 193.49 52.72 Z" />
<path fill="#ffffff" opacity="1.00" d=" M 474.58 78.97 C 505.00 72.78 535.92 68.67 566.99 68.30 C 590.81 68.47 614.79 70.66 637.75 77.31 C 658.63 83.10 678.56 92.87 695.30 106.72 C 720.41 127.06 736.32 157.35 741.88 188.94 C 746.42 214.94 745.95 241.96 739.45 267.58 C 729.70 304.82 706.89 339.51 673.64 359.66 C 655.02 371.09 633.77 378.34 611.97 380.17 C 604.31 380.51 596.64 381.34 588.97 380.88 C 575.40 380.44 562.07 377.48 549.00 373.98 C 554.79 362.01 561.89 349.61 573.84 342.87 C 583.18 336.78 594.80 338.81 605.26 337.08 C 616.64 335.77 627.55 331.41 637.00 324.98 C 652.65 314.84 664.02 299.19 671.17 282.16 C 678.74 263.79 682.01 243.81 682.06 224.00 C 681.89 204.56 679.07 184.80 671.07 166.95 C 665.54 154.70 657.31 143.69 646.97 135.09 C 636.35 126.40 623.78 120.29 610.70 116.29 C 585.32 109.68 558.57 109.74 532.83 114.22 C 532.69 201.47 532.79 288.72 532.78 375.98 C 513.37 376.03 493.96 375.99 474.54 376.00 C 474.54 276.99 474.46 177.98 474.58 78.97 Z" />
<path fill="#ffffff" opacity="1.00" d=" M 1074.92 69.29 C 1089.24 68.23 1103.61 67.73 1117.97 67.91 C 1143.75 68.33 1169.86 74.43 1191.95 88.05 C 1211.32 99.96 1226.34 119.46 1230.96 141.92 C 1235.12 163.37 1232.51 186.85 1220.49 205.46 C 1214.88 213.97 1207.88 221.57 1199.75 227.72 C 1195.71 230.46 1191.86 233.63 1187.15 235.12 C 1185.02 236.21 1182.18 236.39 1180.77 238.49 C 1189.78 240.99 1195.80 248.65 1201.28 255.72 C 1207.21 263.43 1210.74 272.53 1214.51 281.40 C 1221.61 299.86 1226.51 319.05 1231.82 338.07 C 1235.43 351.07 1240.18 363.72 1245.79 375.98 C 1225.34 375.91 1204.88 376.21 1184.44 375.84 C 1180.66 366.92 1177.02 357.92 1174.52 348.55 C 1168.31 325.29 1163.08 301.61 1153.51 279.43 C 1149.35 268.81 1142.76 259.03 1133.83 251.85 C 1131.63 251.19 1129.27 251.86 1127.03 251.82 C 1116.04 252.73 1105.13 250.47 1094.52 247.86 C 1099.63 234.82 1106.32 221.24 1118.63 213.59 C 1125.92 208.58 1135.38 209.95 1143.14 206.09 C 1161.84 198.50 1172.89 177.63 1171.61 157.91 C 1171.08 142.97 1162.10 129.32 1150.03 120.94 C 1140.81 114.86 1129.98 111.37 1118.96 110.73 C 1105.60 110.07 1092.26 111.52 1079.00 113.03 C 1078.97 200.68 1079.00 288.34 1078.99 375.99 C 1059.01 376.00 1039.04 376.01 1019.06 375.99 C 1019.10 276.40 1019.00 176.80 1019.11 77.21 C 1037.69 74.44 1056.17 70.78 1074.92 69.29 Z" />
<path fill="#ffffff" opacity="1.00" d=" M 1355.97 75.93 C 1356.39 74.96 1356.62 73.16 1358.14 73.49 C 1376.71 73.50 1395.29 73.51 1413.86 73.49 C 1415.33 73.15 1415.52 75.01 1416.00 75.94 C 1451.84 175.98 1487.83 275.95 1523.64 375.99 C 1503.13 376.01 1482.61 376.00 1462.10 375.99 C 1439.05 306.64 1415.92 237.30 1392.87 167.94 C 1390.50 160.31 1387.35 152.89 1385.93 145.00 C 1385.28 141.94 1384.70 138.87 1383.85 135.87 C 1381.88 143.75 1380.49 151.80 1377.64 159.44 C 1366.91 192.10 1356.19 224.76 1345.48 257.42 C 1344.25 261.15 1341.71 264.22 1339.92 267.67 C 1350.23 266.40 1360.64 267.24 1371.00 267.00 C 1379.13 266.82 1388.12 266.80 1394.78 272.22 C 1407.71 280.78 1414.47 295.50 1419.20 309.74 C 1389.13 309.78 1359.06 309.73 1329.00 309.76 C 1321.61 331.83 1314.31 353.93 1306.93 375.99 C 1287.38 376.00 1267.83 376.01 1248.28 375.99 C 1284.19 275.97 1320.12 175.96 1355.97 75.93 Z" />
<path fill="#ffffff" opacity="1.00" d=" M 820.01 125.10 C 826.27 107.89 832.23 90.57 838.68 73.43 C 858.07 73.65 877.47 73.33 896.87 73.59 C 932.87 174.44 969.26 275.15 1005.29 375.98 C 984.79 376.04 964.30 375.96 943.81 376.02 C 919.19 302.26 894.69 228.46 870.11 154.68 C 868.02 148.78 867.30 142.52 865.70 136.49 C 864.20 139.78 863.87 143.43 862.94 146.90 C 861.90 152.13 860.02 157.13 858.40 162.19 C 847.91 194.10 837.46 226.02 826.98 257.94 C 825.68 261.43 823.32 264.39 821.56 267.65 C 830.33 266.51 839.19 267.17 848.00 267.00 C 856.12 267.21 864.75 266.02 872.33 269.66 C 880.92 274.39 888.00 281.72 892.60 290.37 C 896.03 296.52 898.67 303.08 900.90 309.75 C 871.26 309.76 841.63 309.74 811.99 309.76 C 810.24 309.37 810.14 311.56 809.66 312.64 C 802.73 333.76 795.56 354.79 788.69 375.93 C 769.11 376.10 749.53 375.95 729.95 376.00 C 759.97 292.37 789.99 208.73 820.01 125.10 Z" />
<path fill="#ffffff" opacity="1.00" d=" M 303.67 84.26 C 303.52 81.34 306.85 81.04 308.97 81.71 C 324.62 85.99 337.95 96.62 347.51 109.53 C 353.86 117.77 358.61 127.18 361.98 137.01 C 365.08 146.35 365.06 156.42 363.84 166.09 C 361.84 184.42 354.22 202.15 341.94 215.96 C 337.02 222.01 331.48 227.59 324.97 231.93 C 315.07 239.86 303.43 245.11 291.79 249.92 C 279.99 254.27 267.71 257.95 255.06 258.43 C 236.68 259.78 218.01 255.84 201.67 247.33 C 178.15 236.11 159.47 217.49 138.31 202.69 C 121.26 189.75 101.31 180.21 79.97 177.34 C 67.27 176.00 54.39 176.46 41.77 178.34 C 35.33 179.31 28.79 179.93 22.28 179.25 C 24.04 175.82 27.39 173.63 30.37 171.36 C 42.27 164.07 55.97 159.81 69.88 158.86 C 94.87 156.32 120.21 159.01 144.46 165.38 C 158.41 168.96 172.49 172.82 187.00 173.00 C 191.32 172.97 195.64 173.34 199.96 173.07 C 231.07 172.95 261.94 158.84 282.01 135.01 C 293.83 120.58 301.45 102.79 303.67 84.26 Z" />
</g>
<g id="#b3b3b3b3">
<path fill="#b3b3b3" opacity="0.70" d=" M 384.26 173.45 C 388.46 175.44 390.09 180.18 391.92 184.12 C 394.77 191.85 397.20 199.82 398.10 208.04 C 398.47 211.72 400.06 215.20 400.01 218.93 C 400.00 233.64 399.99 248.35 400.02 263.06 C 400.14 265.60 399.31 268.03 398.61 270.44 C 395.23 284.46 389.30 297.74 382.45 310.38 C 375.21 323.01 365.44 333.96 355.17 344.18 C 345.09 353.52 335.03 363.07 323.17 370.16 C 305.68 382.09 285.64 390.24 264.77 393.83 C 257.23 395.15 249.55 394.71 241.94 394.70 C 226.18 394.09 210.84 389.60 196.29 383.72 C 170.78 372.70 147.87 354.43 133.89 330.16 C 124.90 314.74 116.58 298.94 107.41 283.63 C 96.78 265.28 84.58 247.56 68.94 233.08 C 57.04 221.79 41.70 213.32 25.08 212.35 C 18.71 211.85 12.43 213.15 6.11 213.65 C 11.92 207.80 20.02 205.28 27.65 202.78 C 39.73 199.71 52.34 197.55 64.79 199.57 C 79.10 201.21 92.00 208.33 103.83 216.14 C 111.68 221.12 118.79 227.12 126.01 232.96 C 144.58 247.66 163.74 262.30 185.99 271.03 C 195.73 275.30 206.11 277.81 216.57 279.60 C 227.22 282.01 238.24 281.29 249.07 280.99 C 287.37 276.25 324.70 259.59 352.03 232.03 C 364.31 218.77 374.25 203.17 380.09 186.01 C 381.60 181.87 382.93 177.65 384.26 173.45 Z" />
<path fill="#b3b3b3" opacity="0.70" d=" M 523.19 439.96 C 523.94 437.41 525.94 435.20 528.85 436.04 C 533.44 436.52 532.44 444.13 527.99 443.84 C 525.41 444.27 524.10 441.92 523.19 439.96 Z" />
<path fill="#b3b3b3" opacity="0.70" d=" M 584.24 436.05 C 586.15 436.01 588.06 435.99 589.97 435.98 C 590.05 443.45 589.96 450.92 590.00 458.39 C 592.85 455.58 596.11 453.00 600.19 452.36 C 605.68 451.57 611.99 451.72 616.33 455.67 C 620.44 459.17 621.41 464.83 621.54 469.95 C 621.57 477.28 621.47 484.61 621.59 491.94 C 619.52 491.97 617.46 491.97 615.41 491.93 C 615.29 482.98 615.92 473.96 615.08 465.04 C 613.24 456.16 601.08 454.66 594.87 459.87 C 591.20 462.69 590.04 467.52 589.99 471.93 C 589.96 478.62 590.05 485.32 589.97 492.02 C 588.06 492.00 586.15 491.98 584.24 491.95 C 584.28 473.32 584.28 454.68 584.24 436.05 Z" />
<path fill="#b3b3b3" opacity="0.70" d=" M 705.13 436.01 C 707.04 436.00 708.95 436.00 710.87 436.01 C 710.89 454.66 710.85 473.31 710.89 491.97 C 709.03 491.99 707.18 492.01 705.34 492.02 C 705.24 489.44 705.24 486.86 705.52 484.30 C 698.52 494.96 680.93 494.41 673.80 484.20 C 668.93 477.09 668.74 466.86 673.78 459.77 C 680.18 450.64 695.01 449.06 703.06 456.83 C 703.55 457.25 704.52 458.09 705.01 458.51 C 705.27 451.01 705.04 443.51 705.13 436.01 M 687.29 457.17 C 678.17 458.83 673.39 469.75 677.02 477.95 C 679.76 486.24 690.80 489.56 698.04 485.09 C 706.17 480.60 707.53 468.25 701.44 461.56 C 697.99 457.66 692.32 456.04 687.29 457.17 Z" />
<path fill="#b3b3b3" opacity="0.70" d=" M 472.40 439.10 C 479.62 438.91 486.84 438.99 494.05 439.04 C 500.68 439.06 508.06 441.32 511.76 447.22 C 515.45 453.28 515.36 461.50 511.46 467.46 C 509.37 470.59 505.93 472.30 502.70 473.99 C 506.82 480.01 511.24 485.84 515.17 491.99 C 512.66 491.65 509.10 493.14 507.62 490.36 C 504.01 485.25 500.43 480.12 496.80 475.03 C 490.73 474.95 484.66 475.01 478.59 475.00 C 478.49 480.64 478.52 486.29 478.59 491.93 C 476.53 491.97 474.46 491.97 472.41 491.94 C 472.49 474.33 472.50 456.71 472.40 439.10 M 478.59 443.90 C 478.50 452.63 478.49 461.37 478.60 470.10 C 486.41 469.66 494.76 471.52 502.13 468.15 C 510.69 464.18 510.75 449.92 502.19 445.92 C 494.76 442.64 486.45 444.23 478.59 443.90 Z" />
<path fill="#b3b3b3" opacity="0.70" d=" M 654.03 438.98 C 655.93 438.99 657.84 439.01 659.76 439.05 C 659.72 456.68 659.72 474.32 659.76 491.95 C 657.84 491.98 655.93 492.00 654.03 492.02 C 653.98 474.34 653.98 456.66 654.03 438.98 Z" />
<path fill="#b3b3b3" opacity="0.70" d=" M 830.24 439.06 C 842.46 438.96 854.69 438.96 866.91 439.06 C 866.89 440.65 866.88 442.25 866.87 443.85 C 856.58 443.93 846.30 443.82 836.02 443.91 C 835.98 449.97 835.98 456.03 836.02 462.09 C 845.26 462.19 854.50 462.04 863.75 462.17 C 863.75 463.75 863.76 465.33 863.78 466.92 C 854.52 467.11 845.26 466.93 836.01 467.01 C 835.99 473.70 835.97 480.40 836.02 487.09 C 846.67 487.17 857.33 487.09 867.98 487.13 C 867.99 488.74 868.00 490.35 868.01 491.97 C 855.42 492.00 842.83 492.06 830.24 491.94 C 830.28 474.31 830.28 456.68 830.24 439.06 Z" />
<path fill="#b3b3b3" opacity="0.70" d=" M 1161.29 447.31 C 1166.72 441.31 1175.08 438.68 1183.02 439.02 C 1189.69 438.86 1196.41 441.10 1201.53 445.42 C 1202.08 447.50 1199.28 448.35 1198.23 449.76 C 1188.56 440.62 1170.82 442.33 1163.55 453.62 C 1157.78 462.24 1159.50 474.85 1167.45 481.55 C 1175.97 489.20 1190.10 488.81 1198.26 480.77 C 1199.31 482.03 1201.68 482.94 1201.65 484.72 C 1198.40 488.23 1193.89 490.38 1189.27 491.40 C 1180.17 493.05 1169.89 491.62 1162.91 485.12 C 1152.23 475.82 1151.22 457.41 1161.29 447.31 Z" />
<path fill="#b3b3b3" opacity="0.70" d=" M 525.03 451.98 C 526.93 451.99 528.84 452.01 530.76 452.05 C 530.72 465.35 530.72 478.65 530.76 491.95 C 528.84 491.98 526.93 492.00 525.03 492.02 C 524.98 478.67 524.98 465.33 525.03 451.98 Z" />
<path fill="#b3b3b3" opacity="0.70" d=" M 542.00 462.02 C 548.30 449.76 568.74 447.94 576.26 459.87 C 574.86 460.81 573.45 461.74 572.05 462.68 C 569.36 459.81 566.01 457.22 561.96 456.90 C 556.20 456.27 550.05 459.04 547.25 464.22 C 543.49 471.45 545.57 482.16 553.57 485.57 C 559.83 488.87 567.70 486.72 572.06 481.33 C 573.45 482.25 574.86 483.19 576.27 484.13 C 568.93 495.46 549.80 494.38 542.77 483.24 C 538.78 476.95 538.59 468.60 542.00 462.02 Z" />
<path fill="#b3b3b3" opacity="0.70" d=" M 724.68 458.68 C 732.01 449.54 747.97 449.51 755.09 458.92 C 758.54 463.09 759.20 468.65 759.76 473.84 C 748.41 474.25 737.05 473.82 725.70 474.06 C 726.50 479.67 730.27 484.77 735.91 486.21 C 742.17 488.59 749.06 486.26 753.95 482.06 C 754.99 483.32 756.01 484.59 757.04 485.88 C 748.20 494.69 731.52 494.24 723.87 484.12 C 718.30 476.78 719.09 465.78 724.68 458.68 M 729.96 460.95 C 727.38 463.26 726.46 466.69 725.72 469.95 C 735.17 470.06 744.62 469.97 754.07 470.00 C 753.25 467.06 752.55 463.91 750.44 461.59 C 745.48 455.62 735.22 455.07 729.96 460.95 Z" />
<path fill="#b3b3b3" opacity="0.70" d=" M 764.86 457.12 C 771.72 452.09 780.94 450.58 789.05 453.03 C 794.60 454.63 797.90 460.36 797.85 465.92 C 797.92 474.62 797.87 483.31 797.86 492.00 C 796.00 491.99 794.15 491.99 792.31 491.97 C 792.25 490.28 792.21 488.59 792.16 486.92 C 787.05 492.11 779.22 493.03 772.42 491.33 C 768.53 490.11 764.76 487.14 764.16 482.90 C 763.83 480.05 763.76 476.88 765.46 474.41 C 767.75 470.96 771.91 469.25 775.94 469.11 C 781.35 468.84 786.77 469.10 792.19 468.96 C 792.33 465.02 791.66 460.15 787.62 458.32 C 780.97 454.94 773.31 457.75 767.25 461.11 C 766.43 459.78 765.63 458.46 764.86 457.12 M 772.68 474.64 C 769.69 476.06 769.11 479.88 770.07 482.75 C 771.56 486.16 775.48 487.57 778.98 487.49 C 783.30 487.74 787.87 486.11 790.44 482.49 C 792.79 479.89 792.03 476.20 792.12 473.02 C 785.66 473.38 778.76 471.81 772.68 474.64 Z" />
<path fill="#b3b3b3" opacity="0.70" d=" M 872.03 451.99 C 874.25 451.98 876.48 452.02 878.72 452.10 C 882.58 457.16 886.47 462.19 890.30 467.27 C 894.37 462.28 898.15 457.06 902.16 452.02 C 904.24 452.00 906.32 452.00 908.42 452.03 C 903.68 458.58 898.61 464.89 893.60 471.25 C 898.56 478.38 904.28 484.94 909.39 491.97 C 906.81 491.62 903.17 493.18 901.58 490.40 C 897.77 485.53 894.21 480.47 890.30 475.69 C 886.19 481.16 882.01 486.56 877.85 491.98 C 875.68 491.99 873.51 492.00 871.36 491.98 C 876.00 485.75 880.76 479.61 885.56 473.50 C 886.02 472.66 887.49 471.57 886.42 470.61 C 881.64 464.39 876.79 458.22 872.03 451.99 Z" />
<path fill="#b3b3b3" opacity="0.70" d=" M 916.25 452.05 C 918.10 452.01 919.97 451.99 921.84 451.99 C 921.86 454.33 921.88 456.67 921.96 459.02 C 925.67 454.65 931.11 451.53 936.99 451.97 C 945.58 451.34 954.04 457.29 956.32 465.60 C 957.98 472.55 956.99 480.58 952.00 486.00 C 944.21 494.33 929.06 494.19 922.00 484.94 C 921.97 492.30 922.04 499.66 921.97 507.02 C 920.05 507.00 918.14 506.98 916.24 506.95 C 916.28 488.65 916.27 470.35 916.25 452.05 M 933.27 457.20 C 924.34 458.98 919.57 469.75 923.12 477.84 C 925.66 485.89 936.17 489.41 943.40 485.52 C 951.54 481.74 953.54 470.33 948.83 463.15 C 945.58 458.16 938.99 455.86 933.27 457.20 Z" />
<path fill="#b3b3b3" opacity="0.70" d=" M 963.58 457.10 C 970.52 452.12 979.77 450.55 987.93 453.04 C 993.45 454.76 996.52 460.46 996.69 465.98 C 996.82 474.63 996.67 483.29 996.75 491.95 C 994.89 491.98 993.03 492.00 991.19 492.02 C 991.12 490.24 991.07 488.45 991.01 486.68 C 988.39 489.01 985.48 491.29 981.89 491.75 C 976.40 492.37 969.97 492.40 965.81 488.18 C 960.55 483.39 961.89 473.39 968.63 470.61 C 975.72 467.66 983.65 469.56 991.11 468.96 C 991.02 465.12 990.43 460.32 986.60 458.39 C 979.90 455.02 972.06 457.55 966.07 461.24 C 965.23 459.86 964.39 458.48 963.58 457.10 M 972.32 474.16 C 966.96 476.01 967.33 484.74 972.57 486.51 C 978.41 488.75 986.29 487.41 989.70 481.73 C 991.70 479.26 990.84 475.93 991.01 473.02 C 984.79 473.29 978.33 472.10 972.32 474.16 Z" />
<path fill="#b3b3b3" opacity="0.70" d=" M 1009.25 452.05 C 1011.10 452.01 1012.96 451.99 1014.83 451.99 C 1014.86 454.11 1014.89 456.25 1014.98 458.39 C 1018.57 454.51 1023.54 451.81 1028.95 452.02 C 1034.74 451.49 1041.09 453.72 1044.06 458.99 C 1046.96 464.13 1046.53 470.30 1046.54 476.00 C 1046.54 481.31 1046.50 486.62 1046.59 491.94 C 1044.52 491.97 1042.46 491.97 1040.41 491.94 C 1040.29 482.98 1040.92 473.96 1040.08 465.04 C 1038.23 456.16 1026.08 454.65 1019.87 459.87 C 1016.20 462.69 1015.04 467.52 1014.99 471.92 C 1014.96 478.62 1015.05 485.32 1014.97 492.02 C 1013.05 492.00 1011.14 491.98 1009.24 491.95 C 1009.28 478.65 1009.27 465.35 1009.25 452.05 Z" />
<path fill="#b3b3b3" opacity="0.70" d=" M 1056.41 458.37 C 1058.55 454.67 1062.78 452.57 1066.93 452.14 C 1073.02 451.65 1079.57 451.92 1084.90 455.26 C 1085.58 456.85 1083.85 458.42 1083.49 459.97 C 1077.91 457.65 1071.72 455.52 1065.71 457.57 C 1063.02 458.34 1060.25 460.83 1060.90 463.89 C 1061.41 467.15 1064.95 468.42 1067.77 469.08 C 1073.02 470.40 1078.78 470.51 1083.44 473.57 C 1088.44 477.09 1087.91 485.61 1082.85 488.84 C 1078.30 492.24 1072.35 492.18 1066.94 491.94 C 1062.26 491.76 1057.84 489.93 1053.83 487.63 C 1054.32 485.96 1055.09 484.40 1056.00 482.93 C 1062.10 486.28 1069.39 488.45 1076.28 486.42 C 1078.75 485.80 1081.33 483.80 1081.15 481.01 C 1081.43 478.73 1079.25 477.23 1077.42 476.46 C 1071.38 474.20 1064.32 474.91 1058.86 471.11 C 1054.80 468.37 1054.01 462.44 1056.41 458.37 Z" />
<path fill="#b3b3b3" opacity="0.70" d=" M 1095.68 458.68 C 1103.01 449.54 1118.97 449.51 1126.09 458.92 C 1129.54 463.09 1130.20 468.65 1130.76 473.83 C 1119.41 474.25 1108.05 473.82 1096.70 474.06 C 1097.50 479.67 1101.27 484.76 1106.91 486.21 C 1113.17 488.59 1120.06 486.26 1124.95 482.06 C 1125.98 483.32 1127.01 484.59 1128.04 485.88 C 1119.20 494.69 1102.52 494.24 1094.87 484.12 C 1089.30 476.78 1090.09 465.78 1095.68 458.68 M 1100.96 460.94 C 1098.38 463.26 1097.45 466.69 1096.71 469.95 C 1106.17 470.07 1115.62 469.97 1125.08 470.00 C 1124.24 467.06 1123.55 463.91 1121.44 461.59 C 1116.48 455.62 1106.22 455.07 1100.96 460.94 Z" />
<path fill="#b3b3b3" opacity="0.70" d=" M 1219.42 452.62 C 1225.50 451.34 1232.38 451.61 1237.63 455.31 C 1248.74 462.28 1248.92 480.78 1238.22 488.22 C 1233.13 492.12 1226.31 492.61 1220.21 491.51 C 1211.37 489.65 1204.84 480.96 1205.10 472.00 C 1204.76 463.22 1210.92 454.85 1219.42 452.62 M 1222.29 457.18 C 1219.60 457.84 1217.05 459.14 1215.07 461.07 C 1209.40 466.86 1209.51 477.08 1215.12 482.87 C 1219.99 487.60 1228.02 488.51 1233.76 484.80 C 1239.98 480.97 1241.78 472.31 1239.25 465.78 C 1236.75 459.19 1229.01 455.58 1222.29 457.18 Z" />
<path fill="#b3b3b3" opacity="0.70" d=" M 1255.25 452.05 C 1257.10 452.01 1258.96 451.99 1260.83 451.99 C 1260.85 454.00 1260.88 456.03 1260.96 458.05 C 1264.71 454.44 1269.57 451.59 1274.98 452.02 C 1280.85 451.46 1286.65 454.46 1289.48 459.65 C 1292.87 455.14 1298.18 451.94 1303.93 452.03 C 1309.23 451.60 1315.22 452.96 1318.44 457.54 C 1321.66 462.00 1321.91 467.71 1321.75 473.00 C 1321.72 479.32 1321.72 485.63 1321.76 491.95 C 1319.83 491.98 1317.92 492.00 1316.03 492.02 C 1315.92 484.35 1316.08 476.67 1315.97 469.00 C 1315.73 464.75 1314.26 459.75 1309.91 458.05 C 1302.85 454.59 1293.02 458.94 1291.85 466.98 C 1291.15 475.26 1291.67 483.62 1291.59 491.94 C 1289.52 491.97 1287.46 491.97 1285.41 491.93 C 1285.48 483.95 1285.50 475.97 1285.43 467.99 C 1285.48 464.48 1284.00 460.89 1281.05 458.88 C 1276.06 455.49 1268.91 456.57 1264.67 460.67 C 1261.93 463.71 1261.09 467.96 1260.99 471.93 C 1260.96 478.62 1261.05 485.32 1260.97 492.02 C 1259.05 492.00 1257.14 491.98 1255.24 491.95 C 1255.28 478.65 1255.27 465.35 1255.25 452.05 Z" />
<path fill="#b3b3b3" opacity="0.70" d=" M 1334.25 452.05 C 1336.10 452.01 1337.96 451.99 1339.84 451.99 C 1339.85 454.32 1339.88 456.67 1339.96 459.02 C 1343.67 454.65 1349.11 451.53 1354.99 451.97 C 1363.58 451.34 1372.04 457.29 1374.31 465.60 C 1375.98 472.55 1374.99 480.58 1370.00 486.00 C 1362.22 494.33 1347.06 494.19 1340.00 484.94 C 1339.97 492.30 1340.04 499.66 1339.97 507.02 C 1338.05 507.00 1336.14 506.98 1334.24 506.95 C 1334.28 488.65 1334.27 470.35 1334.25 452.05 M 1351.27 457.20 C 1342.34 458.98 1337.57 469.75 1341.12 477.84 C 1343.66 485.89 1354.17 489.42 1361.41 485.52 C 1369.54 481.73 1371.54 470.32 1366.83 463.15 C 1363.57 458.16 1356.99 455.86 1351.27 457.20 Z" />
<path fill="#b3b3b3" opacity="0.70" d=" M 1381.58 457.10 C 1388.52 452.12 1397.77 450.55 1405.93 453.04 C 1411.45 454.76 1414.52 460.46 1414.69 465.98 C 1414.82 474.63 1414.67 483.29 1414.75 491.95 C 1412.88 491.98 1411.03 492.00 1409.19 492.02 C 1409.12 490.23 1409.07 488.45 1409.01 486.68 C 1406.38 489.01 1403.48 491.30 1399.88 491.75 C 1394.62 492.32 1388.54 492.44 1384.35 488.68 C 1379.93 485.13 1379.45 478.17 1382.66 473.68 C 1385.16 470.71 1389.07 469.22 1392.90 469.09 C 1398.30 468.85 1403.70 469.10 1409.11 468.96 C 1409.02 465.12 1408.43 460.32 1404.60 458.39 C 1397.89 455.02 1390.06 457.55 1384.07 461.24 C 1383.22 459.86 1382.38 458.48 1381.58 457.10 M 1390.32 474.17 C 1384.96 476.02 1385.33 484.73 1390.57 486.51 C 1396.40 488.75 1404.28 487.41 1407.70 481.73 C 1409.70 479.26 1408.84 475.93 1409.01 473.02 C 1402.79 473.29 1396.32 472.10 1390.32 474.17 Z" />
<path fill="#b3b3b3" opacity="0.70" d=" M 1427.41 452.10 C 1429.24 452.03 1431.09 451.99 1432.96 451.96 C 1432.97 454.16 1432.97 456.36 1433.02 458.57 C 1436.36 454.95 1440.84 452.14 1445.91 452.08 C 1451.68 451.48 1458.48 452.93 1461.77 458.18 C 1465.36 463.40 1464.73 470.00 1464.73 476.00 C 1464.73 481.32 1464.72 486.63 1464.76 491.95 C 1462.83 491.98 1460.92 492.00 1459.03 492.02 C 1458.95 484.99 1459.01 477.97 1459.02 470.94 C 1459.00 467.17 1458.41 463.09 1455.83 460.16 C 1449.02 453.60 1435.39 457.30 1433.85 466.98 C 1433.15 475.27 1433.67 483.62 1433.59 491.94 C 1431.52 491.97 1429.45 491.97 1427.41 491.94 C 1427.49 478.66 1427.50 465.38 1427.41 452.10 Z" />
<path fill="#b3b3b3" opacity="0.70" d=" M 1469.01 452.00 C 1471.04 452.27 1473.60 451.32 1475.34 452.59 C 1480.21 463.37 1484.71 474.34 1489.88 484.99 C 1495.01 474.19 1499.89 463.24 1504.44 452.18 C 1506.41 452.05 1508.39 451.99 1510.40 451.98 C 1504.15 466.47 1497.47 480.78 1491.15 495.24 C 1489.18 499.77 1486.67 504.82 1481.62 506.49 C 1476.63 507.79 1471.04 507.04 1466.98 503.71 C 1467.72 502.13 1468.63 500.63 1469.65 499.20 C 1471.89 500.58 1474.22 502.46 1477.06 502.17 C 1482.63 502.17 1485.67 496.01 1486.57 491.33 C 1480.83 478.18 1474.86 465.11 1469.01 452.00 Z" />
</g>
<g id="#4d4d4d4d">
<path fill="#4d4d4d" opacity="0.30" d=" M 14.88 246.01 C 21.79 244.23 29.25 245.28 35.60 248.47 C 43.35 251.89 48.26 259.11 54.37 264.64 C 60.69 270.22 64.37 277.93 69.53 284.48 C 74.66 292.35 80.25 299.98 84.48 308.40 C 87.82 314.97 92.02 321.05 95.22 327.69 C 100.13 336.41 104.69 345.34 110.29 353.64 C 119.75 367.86 131.56 380.47 145.00 390.99 C 166.03 406.81 190.29 418.66 216.19 423.83 C 221.39 424.95 226.56 426.61 231.95 426.54 C 236.13 426.52 240.30 426.82 244.42 427.55 C 249.64 428.51 254.78 426.58 259.99 426.50 C 263.90 426.41 268.29 426.03 271.41 428.88 C 270.04 430.35 268.80 432.09 266.87 432.86 C 246.22 440.67 224.13 445.14 202.00 444.41 C 193.20 444.19 184.33 445.10 175.60 443.61 C 170.55 442.91 165.40 442.82 160.43 441.57 C 149.20 438.83 137.74 436.59 127.13 431.86 C 120.42 428.90 113.55 426.32 107.01 422.99 C 91.80 416.08 78.46 405.84 65.48 395.48 C 54.56 386.74 46.10 375.52 37.04 364.99 C 33.16 360.10 29.95 354.74 26.50 349.55 C 16.30 334.04 9.51 316.57 4.17 298.87 C 2.92 294.29 1.60 289.73 0.00 285.26 L 0.00 255.23 C 4.44 251.43 9.13 247.56 14.88 246.01 Z" />
</g>
</svg>
