<svg xmlns="http://www.w3.org/2000/svg" width="28" height="28" viewBox="0 0 28 28"><path d="M17,22.667H2.267A2.27,2.27,0,0,1,0,20.4V5.666a1.134,1.134,0,0,1,2.267,0v13.6A1.134,1.134,0,0,0,3.4,20.4H17a1.134,1.134,0,1,1,0,2.267Zm3.4-4.533H6.8a2.27,2.27,0,0,1-2.267-2.267V2.266A2.269,2.269,0,0,1,6.8,0H20.4a2.269,2.269,0,0,1,2.267,2.266v13.6A2.27,2.27,0,0,1,20.4,18.133ZM16.889,6.346v5.687H18.26V9.769h2.209V8.711H18.26V7.4h2.431V6.346Zm-5.172,0v5.687h1.868a2.642,2.642,0,0,0,1.34-.353,2.41,2.41,0,0,0,.929-.968,2.954,2.954,0,0,0,.328-1.4V9.049a2.92,2.92,0,0,0-.34-1.4,2.4,2.4,0,0,0-.94-.966,2.716,2.716,0,0,0-1.356-.341Zm-5.207,0v5.687H7.88V10.1h.873a2.493,2.493,0,0,0,1.637-.5,1.651,1.651,0,0,0,.6-1.329A1.867,1.867,0,0,0,10.71,7.27a1.819,1.819,0,0,0-.777-.684,2.654,2.654,0,0,0-1.156-.24Zm7.053,4.633h-.476V7.4h.459a1.088,1.088,0,0,1,.922.419,2.048,2.048,0,0,1,.317,1.24V9.31a2.07,2.07,0,0,1-.317,1.249A1.069,1.069,0,0,1,13.564,10.979ZM8.778,9.045h-.9V7.4H8.8a.763.763,0,0,1,.584.242.916.916,0,0,1,.216.638.745.745,0,0,1-.209.562A.853.853,0,0,1,8.778,9.045Z" transform="translate(2.666 2.667)" fill="#fff"/><path d="M0,0H28V28H0Z" fill="none"/></svg>