<svg xmlns="http://www.w3.org/2000/svg" width="28" height="28" viewBox="0 0 28 28"><path d="M17,22.667H2.267A2.27,2.27,0,0,1,0,20.4V5.666a1.134,1.134,0,0,1,2.267,0v13.6A1.134,1.134,0,0,0,3.4,20.4H17a1.134,1.134,0,1,1,0,2.267Zm3.4-4.533H6.8a2.27,2.27,0,0,1-2.267-2.267V2.266A2.269,2.269,0,0,1,6.8,0H20.4a2.269,2.269,0,0,1,2.267,2.266v13.6A2.27,2.27,0,0,1,20.4,18.133ZM16.076,10.19a1.775,1.775,0,0,0,.284.995,1.89,1.89,0,0,0,.843.679,3.085,3.085,0,0,0,1.252.247A2.518,2.518,0,0,0,20,11.686a1.4,1.4,0,0,0,.562-1.173,1.637,1.637,0,0,0-.922-1.464,5.119,5.119,0,0,0-.968-.409,2.987,2.987,0,0,1-.824-.366.5.5,0,0,1-.235-.4.5.5,0,0,1,.214-.412A.939.939,0,0,1,18.4,7.3a.833.833,0,0,1,.578.192.693.693,0,0,1,.212.539h1.367a1.64,1.64,0,0,0-.269-.923,1.749,1.749,0,0,0-.755-.625,2.661,2.661,0,0,0-1.1-.219,3.02,3.02,0,0,0-1.132.2,1.8,1.8,0,0,0-.779.563,1.341,1.341,0,0,0-.276.834,1.664,1.664,0,0,0,1.106,1.492,7.364,7.364,0,0,0,.877.347,2.592,2.592,0,0,1,.748.347.567.567,0,0,1,.212.468.486.486,0,0,1-.2.414.886.886,0,0,1-.537.146,1.122,1.122,0,0,1-.769-.217.876.876,0,0,1-.237-.673ZM11.919,6.346v5.687h3.757V10.979H13.289V6.346Zm-2.987,3.76v0l.955,1.925H11.47L9.839,9.167l1.589-2.822H9.863L8.932,8.235,8,6.346H6.44L8.027,9.167,6.4,12.033h1.58l.956-1.925Z" transform="translate(2.666 2.667)" fill="#fff"/><path d="M0,0H28V28H0Z" fill="none"/></svg>