<svg height="512pt" viewBox="0 0 512 512" width="512pt" xmlns="http://www.w3.org/2000/svg"><path d="m512 256c0 141.386719-114.613281 256-256 256s-256-114.613281-256-256 114.613281-256 256-256 256 114.613281 256 256zm0 0" fill="#ffd460"/><path d="m281.433594 61-50.867188 305.21875 37 36.695312-29.039062 41.125 63.773437 63.773438c108.527344-19.828125 193.15625-108.082031 207.53125-218.414062zm0 0" fill="#ffbe11"/><path d="m230.566406 425.566406c0 14.046875 11.386719 25.433594 25.433594 25.433594l8.476562-25.433594-8.476562-25.4375c-14.046875 0-25.433594 11.390625-25.433594 25.4375zm0 0" fill="#8bc0ff"/><path d="m256 400.128906v50.871094c14.046875 0 25.433594-11.386719 25.433594-25.433594s-11.386719-25.4375-25.433594-25.4375zm0 0" fill="#3897ff"/><path d="m230.566406 61v305.21875h25.433594l8.476562-152.609375-8.476562-152.609375zm0 0" fill="#8bc0ff"/><path d="m256 61h25.433594v305.21875h-25.433594zm0 0" fill="#3897ff"/></svg>